<?xml version="1.0" encoding="UTF-8" standalone="no"?>
<svg id="svg2" xmlns:rdf="http://www.w3.org/1999/02/22-rdf-syntax-ns#" xmlns="http://www.w3.org/2000/svg" height="151" width="1125" version="1.1" xmlns:cc="http://creativecommons.org/ns#" xmlns:dc="http://purl.org/dc/elements/1.1/" viewBox="0 0 1125 151">
 <defs id="defs4">
  <clipPath id="clipPath4987" clipPathUnits="userSpaceOnUse">
   <rect id="rect4989" rx="0" ry="0" height="173.26" width="1128.3" y="891.45" x="1059.7"/>
  </clipPath>
 </defs>
 <g id="layer1" transform="translate(0 -901.36)">
  <g id="g4955" transform="matrix(.99709 0 0 .99709 -1056.6 -9.2485)" clip-path="url(#clipPath4987)">
   <g id="g4814" transform="translate(1216.2 193.95)" fill="#e70000">
    <ellipse id="ellipse4816" rx="66.071" ry="58.571" cy="778.79" cx="-88.929" fill="#b8e8fc"/>
    <ellipse id="ellipse4818" rx="66.071" ry="58.571" cy="793.93" cx="6.7857" fill="#b8e8fc"/>
    <ellipse id="ellipse4822" rx="43.571" ry="33.929" cy="772.01" cx="139.29" fill="#ddfafe"/>
    <g fill="#b8e8fc">
     <ellipse id="ellipse4820" rx="34.286" ry="33.571" cy="773.79" cx="76.429"/>
     <ellipse id="ellipse4824" rx="65.117" ry="58.214" cy="803.43" cx="221.07"/>
     <ellipse id="ellipse4826" rx="65.117" ry="58.214" cy="808.43" cx="286.07"/>
    </g>
    <ellipse id="ellipse4828" rx="74.045" ry="58.214" cy="811.29" cx="345.71" fill="#ddfafe"/>
    <ellipse id="ellipse4830" rx="50" ry="33.929" cy="793.43" cx="552.14" fill="#b8e8fc"/>
    <ellipse id="ellipse4832" rx="59.286" ry="42.5" cy="789.86" cx="650.71" fill="#b8e8fc"/>
    <ellipse id="ellipse4834" rx="41.429" ry="36.429" cy="785.22" cx="690.71" fill="#ddfafe"/>
    <ellipse id="ellipse4838" rx="86.429" ry="49.286" cy="788.79" cx="849.29" fill="#b8e8fc"/>
    <ellipse id="ellipse4836" rx="68.571" ry="56.429" cy="803.08" cx="774.29" fill="#ddfafe"/>
    <ellipse id="ellipse4840" rx="41.429" ry="36.429" cy="818.55" cx="656.37" fill="#ddfafe"/>
   </g>
   <g id="g4842" fill="#fff" transform="translate(1216.2 193.95)">
    <circle id="circle4844" cy="846.31" cx="-4.0406" r="94.954"/>
    <ellipse id="ellipse4846" rx="52.528" ry="37.881" cy="827.62" cx="117.18"/>
    <ellipse id="ellipse4848" rx="52.528" ry="37.881" cy="828.63" cx="215.16"/>
    <ellipse id="ellipse4850" rx="78.792" ry="56.821" cy="833.43" cx="339.41"/>
    <ellipse id="ellipse4852" rx="80.812" ry="67.933" cy="819.29" cx="474.77"/>
    <ellipse id="ellipse4854" rx="65.155" ry="67.933" cy="852.62" cx="589.42"/>
    <ellipse id="ellipse4856" rx="54.548" ry="42.174" cy="830.91" cx="677.81"/>
    <ellipse id="ellipse4858" rx="31.82" ry="42.174" cy="842.02" cx="749.03"/>
    <ellipse id="ellipse4860" rx="31.82" ry="42.174" cy="843.03" cx="795.5"/>
    <ellipse id="ellipse4862" rx="54.548" ry="42.174" cy="804.64" cx="849.54"/>
    <path id="path4864" d="m971.77 802.62a54.548 42.174 0 0 1 -54.548 42.174 54.548 42.174 0 0 1 -54.548 -42.174 54.548 42.174 0 0 1 54.548 -42.174 54.548 42.174 0 0 1 54.548 42.174z"/>
    <rect id="rect4866" rx="0" ry="0" height="155.08" width="1128.3" y="826.41" x="-156.52"/>
    <ellipse id="ellipse4868" rx="76.772" ry="35.86" cy="813.46" cx="967.73"/>
    <ellipse id="ellipse4870" rx="54.548" ry="42.174" cy="802.62" cx="-211.07"/>
    <ellipse id="ellipse4872" rx="76.772" ry="35.86" cy="813.46" cx="-160.56"/>
   </g>
  </g>
 </g>
</svg>
